# xmcd
#
# Track frame offsets:
#	150
#	13908
#	40295
#	57227
#	71150
#	91869
#	112566
#	122527
#
# Disc length: 2003 seconds
#
# Revision: 1
# Processed by: cddbd v1.5PL3 Copyright (c) Steve Scherf et al.
# Submitted via: EasyCDDAExtractor 6.2.0.3
#
DISCID=6007d108
DTITLE=Jack L - Sunday Independant 
DYEAR=2004
DGENRE=
TTITLE0=Sungod
TTITLE1=Jacky
TTITLE2=Happiness
TTITLE3=Can't Get You Out Of My Head
TTITLE4=Hallelujah
TTITLE5=Georgie Boy
TTITLE6=Chasing Dreams
TTITLE7=When The Moon Is High
EXTD=
EXTT0=
EXTT1=
EXTT2=
EXTT3=
EXTT4=
EXTT5=
EXTT6=
EXTT7=
PLAYORDER=
